<?xml version="1.0" encoding="UTF-8"?>
<!-- Generator: visioncortex VTracer 0.6.4 -->
<svg version="1.1" xmlns="http://www.w3.org/2000/svg" width="379" height="104">
<path d="M0 0 C125.07 0 250.14 0 379 0 C379 34.32 379 68.64 379 104 C253.93 104 128.86 104 0 104 C0 69.68 0 35.36 0 0 Z " fill="#000000" transform="translate(0,0)"/>
<path d="M0 0 C2.89446729 2.20043333 3.8930546 3.40749568 4.54589844 7.02441406 C4.5668457 8.17651367 4.58779297 9.32861328 4.609375 10.515625 C4.64160156 11.76601562 4.67382812 13.01640625 4.70703125 14.3046875 C4.72121094 15.60664063 4.73539063 16.90859375 4.75 18.25 C4.77964844 19.56742188 4.80929688 20.88484375 4.83984375 22.2421875 C4.91055388 25.49485343 4.96324786 28.74680193 5 32 C5.58370361 31.50193848 6.16740723 31.00387695 6.76879883 30.49072266 C12.25804768 25.98131403 15.30559501 24.05676109 22.484375 24.578125 C27.42791927 25.40716659 30.04032787 26.85372495 33.25 30.6875 C35.26294467 34.4977167 36.12947512 37.79246309 37 42 C37.33 41.319375 37.66 40.63875 38 39.9375 C42.42836752 33.4333352 49.49725212 27.54577544 57 25 C65.95842058 23.70822306 73.58338025 24.64198573 81 30 C85.57381839 34.02142486 88.58634985 39.43187275 89.2878418 45.48291016 C89.40281104 48.2863324 89.40925936 51.06953907 89.375 53.875 C89.38660156 54.81730469 89.39820313 55.75960937 89.41015625 56.73046875 C89.37996729 64.0060084 88.77338032 70.86209012 83.80078125 76.48828125 C81.2278144 78.37458505 78.65663821 80.2328968 76 82 C75.34773438 82.45761719 74.69546875 82.91523437 74.0234375 83.38671875 C67.40601084 87.39941364 59.540147 87.00892156 52.1875 85.375 C45.83409527 83.20554473 41.72760318 79.55150687 38 74 C37.67 73.01 37.34 72.02 37 71 C36.98582031 72.03898437 36.97164062 73.07796875 36.95703125 74.1484375 C36.6656911 84.43299167 35.32762537 91.93351177 28.4375 100 C26.32815876 101.73074153 24.51602542 102.97495261 22 104 C20.35 102.68 18.7 101.36 17 100 C17.21293701 99.22648193 17.42587402 98.45296387 17.64526367 97.65600586 C20.09183149 87.75888454 20.43234298 78.38774831 20.33618164 68.23852539 C20.31232019 65.54218188 20.31567887 62.84681499 20.32226562 60.15039062 C20.3166951 58.41405667 20.30958918 56.6777268 20.30078125 54.94140625 C20.30169266 54.14650284 20.30260406 53.35159943 20.30354309 52.53260803 C20.24208456 47.66394284 19.54240285 43.62337078 18 39 C12.33488381 36.98979748 10.59883859 38.80038714 4 41 C4.33 52.22 4.66 63.44 5 75 C6.32 75.66 7.64 76.32 9 77 C9 79.64 9 82.28 9 85 C6.41850094 85.41724229 3.83724804 85.80926045 1.25 86.1875 C0.15558594 86.36829102 0.15558594 86.36829102 -0.9609375 86.55273438 C-4.04829078 86.98777052 -6.35010482 87.30835858 -9.21478271 85.94914246 C-11.87067494 83.0493765 -11.48084267 80.84239785 -11.45410156 76.95825195 C-11.45468567 76.24580322 -11.45526978 75.53335449 -11.45587158 74.79931641 C-11.45308548 72.44514181 -11.42197113 70.09223453 -11.390625 67.73828125 C-11.38316442 66.10589795 -11.37747062 64.47350569 -11.37347412 62.84111023 C-11.35820321 58.54514833 -11.31890933 54.2497276 -11.2746582 49.95397949 C-11.23373662 45.57030559 -11.21546979 41.18654423 -11.1953125 36.80273438 C-11.15241605 28.2015746 -11.08414766 19.60085462 -11 11 C-12.65 10.67 -14.3 10.34 -16 10 C-16 7.36 -16 4.72 -16 2 C-4.23255814 -0.60465116 -4.23255814 -0.60465116 0 0 Z " fill="#0F0E0E" transform="translate(211,0)"/>
<path d="M0 0 C5.81183221 4.21357835 7.58274122 9.14566834 9.5 15.8125 C10.16 14.8225 10.82 13.8325 11.5 12.8125 C16.84142476 6.80339714 25.08115546 -0.60637043 33.3046875 -1.48828125 C40.48456423 -1.51568536 45.32845736 -1.26842713 50.6875 3.9375 C55.91475596 12.22900945 55.86959617 20.18931091 55.5 29.8125 C45.83696657 31.51676788 36.28264757 32.33529768 26.5 32.8125 C26.97859241 34.41683809 27.45789558 36.02096416 27.9375 37.625 C28.20433594 38.51832031 28.47117187 39.41164062 28.74609375 40.33203125 C29.30387873 42.16723055 29.89344575 43.99283726 30.5 45.8125 C33.3540815 46.89245475 36.23643024 46.99298084 39.265625 47.12890625 C40.15507812 47.17080078 41.04453125 47.21269531 41.9609375 47.25585938 C43.34152344 47.31483398 43.34152344 47.31483398 44.75 47.375 C45.68585938 47.41818359 46.62171875 47.46136719 47.5859375 47.50585938 C49.89048641 47.6116805 52.19513839 47.71376557 54.5 47.8125 C54.5 50.1225 54.5 52.4325 54.5 54.8125 C31.97002151 62.91056672 31.97002151 62.91056672 21.0625 58.3125 C15.85896548 55.21018132 12.78288692 50.37827385 10.125 45.0625 C9.15086638 39.99700518 9.35026383 34.95344197 9.5 29.8125 C8.37078125 30.01166016 8.37078125 30.01166016 7.21875 30.21484375 C-1.68459041 31.69513214 -10.4994672 32.37344962 -19.5 32.8125 C-19.02140759 34.41683809 -18.54210442 36.02096416 -18.0625 37.625 C-17.79566406 38.51832031 -17.52882813 39.41164062 -17.25390625 40.33203125 C-16.69612127 42.16723055 -16.10655425 43.99283726 -15.5 45.8125 C-12.6459185 46.89245475 -9.76356976 46.99298084 -6.734375 47.12890625 C-5.84492188 47.17080078 -4.95546875 47.21269531 -4.0390625 47.25585938 C-2.65847656 47.31483398 -2.65847656 47.31483398 -1.25 47.375 C-0.31414062 47.41818359 0.62171875 47.46136719 1.5859375 47.50585938 C3.89048641 47.6116805 6.19513839 47.71376557 8.5 47.8125 C8.5 50.1225 8.5 52.4325 8.5 54.8125 C-14.02997849 62.91056672 -14.02997849 62.91056672 -24.9375 58.3125 C-30.04276232 55.26877067 -33.27116006 50.58472936 -35.64453125 45.23046875 C-36.83815861 40.46140968 -36.82896798 35.89757867 -36.8125 31 C-36.82861328 30.05318359 -36.84472656 29.10636719 -36.86132812 28.13085938 C-36.86658683 20.4899605 -36.34998433 13.69949712 -30.79296875 8.0703125 C-29.76816406 7.36648437 -28.74335937 6.66265625 -27.6875 5.9375 C-26.67042969 5.21820312 -25.65335938 4.49890625 -24.60546875 3.7578125 C-16.49219676 -1.32446354 -9.33278333 -3.16648006 0 0 Z " fill="#0F0E0E" transform="translate(139.5,26.1875)"/>
<path d="M0 0 C0 27.72 0 55.44 0 84 C-8.02398082 86.29256595 -8.02398082 86.29256595 -12.25 86.3125 C-13.49523437 86.33763672 -13.49523437 86.33763672 -14.765625 86.36328125 C-17.52976208 85.91386735 -18.35943829 85.24311369 -20 83 C-20.6875 80.8125 -20.6875 80.8125 -21 79 C-21.54527344 79.5053125 -22.09054687 80.010625 -22.65234375 80.53125 C-29.58661296 86.50538962 -29.58661296 86.50538962 -34.625 86.6875 C-40.73203426 86.14488894 -44.4994093 83.5005907 -48.75 79.25 C-53.75866161 72.01526656 -54.48062496 65.63572554 -54.375 57.0625 C-54.38660156 56.12470703 -54.39820313 55.18691406 -54.41015625 54.22070312 C-54.37987068 46.95721471 -53.77776076 40.09341539 -48.765625 34.51171875 C-46.19384482 32.64677877 -43.62393126 30.79106556 -41 29 C-40.42121094 28.54238281 -39.84242188 28.08476562 -39.24609375 27.61328125 C-33.75837297 23.69348069 -27.39575654 24.73625746 -21 25 C-20.67 20.38 -20.34 15.76 -20 11 C-22.475 10.505 -22.475 10.505 -25 10 C-26 9 -26 9 -26.0625 5.4375 C-26.041875 4.303125 -26.02125 3.16875 -26 2 C-17.09692093 0.17372737 -9.28528134 0 0 0 Z " fill="#0F0E0E" transform="translate(379,0)"/>
<path d="M0 0 C1.06057617 -0.05607422 1.06057617 -0.05607422 2.14257812 -0.11328125 C5.75452423 -0.17432823 7.49489423 -0.05275618 10.13555908 2.49931335 C12.2834281 5.92706072 12.45216281 7.88783632 12.48339844 11.90942383 C12.50311707 13.21039505 12.52283569 14.51136627 12.54315186 15.85176086 C12.54481477 17.26185056 12.54604577 18.67194082 12.546875 20.08203125 C12.56186324 21.53221987 12.57859175 22.98239146 12.59698486 24.43254089 C12.64059929 28.23831992 12.66064404 32.04386871 12.67572021 35.84985352 C12.69531288 39.73793112 12.73728036 43.62576085 12.77734375 47.51367188 C12.85258163 55.13404785 12.90291157 62.75431958 12.9375 70.375 C14.2575 70.705 15.5775 71.035 16.9375 71.375 C16.93305878 70.57177811 16.92861755 69.76855621 16.92404175 68.94099426 C16.8839333 61.36374448 16.85349948 53.78654633 16.83387566 46.20921803 C16.82344764 42.31383032 16.80930643 38.41853049 16.78662109 34.52319336 C16.76485761 30.7625257 16.75292399 27.00194245 16.74774551 23.24121666 C16.74405604 21.80792602 16.73685141 20.37463988 16.72603989 18.94138527 C16.71147921 16.93077746 16.71068269 14.92008434 16.71044922 12.90942383 C16.706008 11.76580887 16.70156677 10.62219391 16.69699097 9.44392395 C16.9375 6.375 16.9375 6.375 18.9375 1.375 C28.8375 1.375 38.7375 1.375 48.9375 1.375 C48.793125 4.406875 48.64875 7.43875 48.5 10.5625 C48.45689697 11.50891357 48.41379395 12.45532715 48.36938477 13.43041992 C48.16512466 17.49878036 47.91625439 21.40240865 46.9375 25.375 C45.45843108 25.40189216 43.97922517 25.42134621 42.5 25.4375 C41.26443359 25.45490234 41.26443359 25.45490234 40.00390625 25.47265625 C37.9375 25.375 37.9375 25.375 36.9375 24.375 C36.54180892 22.36188551 36.19497809 20.33902792 35.875 18.3125 C35.69839844 17.20777344 35.52179687 16.10304688 35.33984375 14.96484375 C35.14068359 13.68287109 35.14068359 13.68287109 34.9375 12.375 C34.31101563 12.31441406 33.68453125 12.25382812 33.0390625 12.19140625 C32.22179688 12.10761719 31.40453125 12.02382813 30.5625 11.9375 C29.34433594 11.81568359 29.34433594 11.81568359 28.1015625 11.69140625 C25.9375 11.375 25.9375 11.375 23.9375 10.375 C23.9375 19.285 23.9375 28.195 23.9375 37.375 C28.8875 37.375 33.8375 37.375 38.9375 37.375 C38.2775 41.335 37.6175 45.295 36.9375 49.375 C26.1875 48.5 26.1875 48.5 23.9375 47.375 C23.9689209 47.98384033 24.0003418 48.59268066 24.03271484 49.2199707 C25.02334026 71.31258953 25.02334026 71.31258953 20.18359375 78.56640625 C15.51456352 82.32599059 9.72173271 82.2870526 3.9375 82.375 C3.05191406 82.46394531 2.16632812 82.55289063 1.25390625 82.64453125 C-1.0625 82.375 -1.0625 82.375 -3.17315674 80.77093506 C-5.65515517 77.62343551 -5.5784487 75.75382259 -5.60839844 71.77050781 C-5.61873611 71.11643448 -5.62907379 70.46236115 -5.63972473 69.78846741 C-5.66913275 67.63476805 -5.67065134 65.48200927 -5.671875 63.328125 C-5.68685817 61.83166717 -5.70358562 60.33522588 -5.72198486 58.83880615 C-5.76565602 54.90642534 -5.78565668 50.97426759 -5.80072021 47.04168701 C-5.82029236 43.0263551 -5.86226217 39.01126405 -5.90234375 34.99609375 C-5.97764316 27.12245887 -6.02793596 19.24891857 -6.0625 11.375 C-8.3725 10.385 -10.6825 9.395 -13.0625 8.375 C-13.0625 6.065 -13.0625 3.755 -13.0625 1.375 C-8.72405029 0.33920575 -4.44184334 0.08956971 0 0 Z " fill="#0F0E0E" transform="translate(13.0625,4.625)"/>
<path d="M0 0 C2.07254476 2.89514905 1.77234217 5.33463134 1.80314636 8.86479187 C1.81333801 9.56748703 1.82352966 10.27018219 1.83403015 10.99417114 C1.86421032 13.31546448 1.87343337 15.63634552 1.88249207 17.95780945 C1.8993351 19.56779355 1.91748484 21.17776447 1.93688965 22.78771973 C1.98443686 27.02420432 2.01421549 31.26063549 2.04032898 35.49729919 C2.07011082 39.82083185 2.11664925 44.14418031 2.16178894 48.46757507 C2.24787571 56.94990656 2.31519688 65.43225472 2.37077332 73.9148407 C3.69077332 74.5748407 5.01077332 75.2348407 6.37077332 75.9148407 C6.37077332 78.2248407 6.37077332 80.5348407 6.37077332 82.9148407 C2.71425008 84.35820513 -0.87567379 85.23330278 -4.75422668 85.7898407 C-5.58180481 85.91101257 -6.40938293 86.03218445 -7.26203918 86.1570282 C-9.62922668 85.9148407 -9.62922668 85.9148407 -11.74879456 84.34117126 C-14.29623757 81.05419336 -14.11223066 78.98440975 -14.08332825 74.85136414 C-14.08391235 74.14852295 -14.08449646 73.44568176 -14.08509827 72.72154236 C-14.08231807 70.40525918 -14.05123181 68.0902732 -14.01985168 65.7742157 C-14.012389 64.165682 -14.0066962 62.55713919 -14.00270081 60.94859314 C-13.98744646 56.72004485 -13.94816687 52.49204832 -13.90388489 48.26371765 C-13.86292759 43.94698043 -13.84468884 39.63015383 -13.82453918 35.3132782 C-13.78167196 26.84687949 -13.71342362 18.38092878 -13.62922668 9.9148407 C-15.27922668 9.5848407 -16.92922668 9.2548407 -18.62922668 8.9148407 C-18.62922668 6.2748407 -18.62922668 3.6348407 -18.62922668 0.9148407 C-3.23309393 -2.15342775 -3.23309393 -2.15342775 0 0 Z " fill="#0F0E0E" transform="translate(318.6292266845703,1.0851593017578125)"/>
<path d="M0 0 C2.99316331 2.30653565 3.50009236 4.30068343 4 8 C4.40992187 7.50628906 4.81984375 7.01257812 5.2421875 6.50390625 C5.78101562 5.86324219 6.31984375 5.22257812 6.875 4.5625 C7.40867187 3.92441406 7.94234375 3.28632813 8.4921875 2.62890625 C10 1 10 1 12 0 C19.30434783 -0.23188406 19.30434783 -0.23188406 23 1 C24.44656348 3.89312696 24.29947586 5.76566066 24 9 C22.85576759 11.77813634 21.48407171 14.38962387 20 17 C19.319375 16.835 18.63875 16.67 17.9375 16.5 C12.52682981 15.57903486 8.96185585 15.51907208 4 18 C3.67 28.56 3.34 39.12 3 50 C6.465 50.495 6.465 50.495 10 51 C11 52 11 52 11.0625 55.5625 C11.041875 56.696875 11.02125 57.83125 11 59 C6.44395149 60.28944769 1.94864923 61.26322956 -2.75 61.875 C-3.65234375 61.99617188 -4.5546875 62.11734375 -5.484375 62.2421875 C-8 62 -8 62 -10.11914062 60.65185547 C-13.07393061 56.48584706 -12.60329008 52.31745782 -12.609375 47.328125 C-12.62591125 46.29057068 -12.64244751 45.25301636 -12.65948486 44.184021 C-12.70803985 40.8726209 -12.72935302 37.56168029 -12.75 34.25 C-12.77815332 32.00388304 -12.80807984 29.75778755 -12.83984375 27.51171875 C-12.91380062 22.00789613 -12.9653992 16.50420313 -13 11 C-14.32 10.34 -15.64 9.68 -17 9 C-17 6.69 -17 4.38 -17 2 C-11.45710229 0.07203558 -5.86568198 -0.95368606 0 0 Z " fill="#0F0E0E" transform="translate(79,25)"/>
<path d="M0 0 C6.33772498 0.57902803 6.33772498 0.57902803 9.4140625 3.33984375 C13.06975384 9.92008816 13.28543453 15.72593413 13.2265625 23.08984375 C13.23429687 24.05341797 13.24203125 25.01699219 13.25 26.00976562 C13.23517247 31.43293301 12.89608599 36.05875105 10.9765625 41.15234375 C8.55304294 43.22964623 7.22785557 43.15769041 4.0390625 43.08984375 C0.12457638 41.89153167 -1.47705761 40.33531862 -4.0234375 37.15234375 C-6.52505014 31.61057686 -6.32108281 26.17447829 -6.2734375 20.21484375 C-6.28117187 19.25126953 -6.28890625 18.28769531 -6.296875 17.29492188 C-6.25087556 0.47062577 -6.25087556 0.47062577 0 0 Z " fill="#000000" transform="translate(270.0234375,33.84765625)"/>
<path d="M0 0 C1.41750563 0.11509661 2.83401169 0.24253658 4.25 0.375 C5.03890625 0.44460937 5.8278125 0.51421875 6.640625 0.5859375 C9 1 9 1 13 3 C13 13.89 13 24.78 13 36 C5 40 5 40 1 39 C-3.40649118 32.440601 -3.58544095 26.68292449 -3.4375 18.9375 C-3.44458984 17.88755859 -3.45167969 16.83761719 -3.45898438 15.75585938 C-3.40976599 9.73985877 -2.84708956 5.32413299 0 0 Z " fill="#000000" transform="translate(345,34)"/>
<path d="M0 0 C2.64 0 5.28 0 8 0 C8 25.41 8 50.82 8 77 C6.68 76.67 5.36 76.34 4 76 C3.99413376 75.10686096 3.98826752 74.21372192 3.98222351 73.29351807 C3.92432241 64.87695246 3.85226059 56.46065297 3.76428509 48.04434586 C3.71955539 43.71740836 3.68030512 39.39056559 3.65356445 35.06347656 C3.62755722 30.88765915 3.58717346 26.71220572 3.53681374 22.53661346 C3.52012748 20.94346392 3.50862415 19.35025139 3.50238609 17.75702667 C3.49276381 15.52545504 3.46472894 13.2948183 3.43237305 11.06347656 C3.42126999 9.79328674 3.41016693 8.52309692 3.39872742 7.2144165 C2.97927544 3.832925 2.30850073 2.44258714 0 0 Z " fill="#000000" transform="translate(371,0)"/>
<path d="M0 0 C3.125 0.25 3.125 0.25 4.9375 1.5625 C7.09610591 4.6299926 7.2400166 7.31385426 7.1875 10.9375 C7.17847656 11.74574219 7.16945312 12.55398437 7.16015625 13.38671875 C7.14855469 14.00160156 7.13695312 14.61648437 7.125 15.25 C-1.30357143 17.53571429 -1.30357143 17.53571429 -5.875 17.25 C-6.11034715 11.48399495 -5.80884486 6.71026785 -3.875 1.25 C-2.875 0.25 -2.875 0.25 0 0 Z " fill="#000000" transform="translate(171.875,33.75)"/>
<path d="M0 0 C3.125 0.25 3.125 0.25 4.9375 1.5625 C7.09610591 4.6299926 7.2400166 7.31385426 7.1875 10.9375 C7.17847656 11.74574219 7.16945312 12.55398437 7.16015625 13.38671875 C7.14855469 14.00160156 7.13695312 14.61648437 7.125 15.25 C-1.30357143 17.53571429 -1.30357143 17.53571429 -5.875 17.25 C-6.11034715 11.48399495 -5.80884486 6.71026785 -3.875 1.25 C-2.875 0.25 -2.875 0.25 0 0 Z " fill="#000000" transform="translate(125.875,33.75)"/>
</svg>
